<?xml version="1.0" encoding="UTF-8" standalone="no"?>
<svg width="512" height="512" viewBox="0 0 512 512" fill="none" xmlns="http://www.w3.org/2000/svg">
  <mask id="mask0" mask-type="alpha" maskUnits="userSpaceOnUse" x="0" y="0" width="512" height="512">
    <circle cx="256" cy="256" r="256" fill="#C4C4C4"/>
  </mask>
  <g mask="url(#mask0)">
    <!-- Background -->
    <rect width="512" height="512" fill="#0A2A43"/>
    
    <!-- Neural network visualization -->
    <g class="brain-network">
      <!-- Brain outline -->
      <path d="M296 118C371.5 128.5 423 198 423 267C423 337 371.5 406.5 296 417" stroke="#00BCD4" stroke-width="5" stroke-linecap="round"/>
      <path d="M216 118C140.5 128.5 89 198 89 267C89 337 140.5 406.5 216 417" stroke="#00BCD4" stroke-width="5" stroke-linecap="round"/>
      <path d="M256 84V428" stroke="#00BCD4" stroke-width="5" stroke-linecap="round"/>
      
      <!-- Connection nodes -->
      <circle cx="256" cy="84" r="12" fill="#00BCD4"/>
      <circle cx="256" cy="428" r="12" fill="#00BCD4"/>
      <circle cx="296" cy="118" r="10" fill="#00BCD4"/>
      <circle cx="216" cy="118" r="10" fill="#00BCD4"/>
      <circle cx="296" cy="417" r="10" fill="#00BCD4"/>
      <circle cx="216" cy="417" r="10" fill="#00BCD4"/>
      
      <!-- Neural connections -->
      <circle cx="193" cy="214" r="8" fill="#00BCD4"/>
      <circle cx="319" cy="214" r="8" fill="#00BCD4"/>
      <circle cx="146" cy="267" r="8" fill="#00BCD4"/>
      <circle cx="366" cy="267" r="8" fill="#00BCD4"/>
      <circle cx="193" cy="320" r="8" fill="#00BCD4"/>
      <circle cx="319" cy="320" r="8" fill="#00BCD4"/>
      <circle cx="256" cy="267" r="15" fill="#00BCD4"/>
      
      <!-- Neural connections lines -->
      <line x1="256" y1="84" x2="193" y2="214" stroke="#00BCD4" stroke-width="3"/>
      <line x1="256" y1="84" x2="319" y2="214" stroke="#00BCD4" stroke-width="3"/>
      <line x1="193" y1="214" x2="146" y2="267" stroke="#00BCD4" stroke-width="3"/>
      <line x1="319" y1="214" x2="366" y2="267" stroke="#00BCD4" stroke-width="3"/>
      <line x1="146" y1="267" x2="193" y2="320" stroke="#00BCD4" stroke-width="3"/>
      <line x1="366" y1="267" x2="319" y2="320" stroke="#00BCD4" stroke-width="3"/>
      <line x1="193" y1="320" x2="256" y2="428" stroke="#00BCD4" stroke-width="3"/>
      <line x1="319" y1="320" x2="256" y2="428" stroke="#00BCD4" stroke-width="3"/>
      
      <!-- Center connections -->
      <line x1="193" y1="214" x2="256" y2="267" stroke="#00BCD4" stroke-width="3"/>
      <line x1="319" y1="214" x2="256" y2="267" stroke="#00BCD4" stroke-width="3"/>
      <line x1="146" y1="267" x2="256" y2="267" stroke="#00BCD4" stroke-width="3"/>
      <line x1="366" y1="267" x2="256" y2="267" stroke="#00BCD4" stroke-width="3"/>
      <line x1="193" y1="320" x2="256" y2="267" stroke="#00BCD4" stroke-width="3"/>
      <line x1="319" y1="320" x2="256" y2="267" stroke="#00BCD4" stroke-width="3"/>
    </g>
    
    <!-- Glow effect -->
    <circle cx="256" cy="267" r="30" fill="#00BCD4" fill-opacity="0.3"/>
    <circle cx="256" cy="267" r="20" fill="#00BCD4" fill-opacity="0.5"/>
  </g>
</svg>