<?xml version="1.0" standalone="no"?>
<!DOCTYPE svg PUBLIC "-//W3C//DTD SVG 20010904//EN"
 "http://www.w3.org/TR/2001/REC-SVG-20010904/DTD/svg10.dtd">
<svg version="1.0" xmlns="http://www.w3.org/2000/svg"
 width="512.000000pt" height="512.000000pt" viewBox="0 0 512.000000 512.000000"
 preserveAspectRatio="xMidYMid meet">
<metadata>
Created by Softworks Trading Company
</metadata>
<g transform="translate(0.000000,512.000000) scale(0.100000,-0.100000)"
fill="#000000" stroke="none">
<path d="M2460 4240 c-19 -19 -20 -33 -20 -434 0 -401 1 -415 20 -434 24 -24
76 -24 100 0 19 19 20 33 20 434 0 401 -1 415 -20 434 -11 11 -33 20 -50 20
-17 0 -39 -9 -50 -20z"/>
<path d="M2925 4178 c-35 -19 -45 -38 -131 -239 -104 -242 -104 -280 -1 -337
93 -51 138 -38 190 57 44 81 137 321 137 354 0 15 -11 40 -25 55 -32 37 -123
40 -170 5 -16 -12 -33 -23 -37 -23 -5 0 -2 10 5 23 17 30 55 57 83 57 32 0 64
32 64 65 0 14 -11 35 -25 46 -27 24 -50 22 -90 -8z"/>
<path d="M1944 4114 c-18 -14 -34 -39 -35 -53 -4 -32 28 -71 62 -75 16 -1 40
-15 59 -34 l32 -32 -20 -32 c-72 -117 -162 -343 -162 -409 0 -41 5 -51 39 -85
55 -55 100 -61 165 -24 68 40 78 61 188 362 89 243 89 250 10 316 -60 49 -118
60 -198 35 -35 -11 -64 -16 -64 -12 0 4 11 21 24 37 13 17 32 33 43 37 30 10
43 43 32 79 -12 35 -36 51 -84 56 -25 3 -42 -3 -91 -38z"/>
<path d="M3480 3673 c-8 -3 -25 -15 -38 -27 -20 -19 -28 -38 -36 -92 -15 -92
-72 -272 -130 -404 -26 -60 -51 -125 -55 -144 -6 -29 -3 -40 19 -67 29 -35 77
-59 114 -59 35 0 83 28 105 62 12 17 48 112 81 211 73 220 80 236 124 287 28
33 36 50 36 80 0 47 -24 98 -60 126 -25 19 -41 23 -85 22 -30 0 -65 -3 -75 -6z"/>
<path d="M1390 3616 c-19 -8 -45 -22 -56 -32 -27 -24 -46 -95 -39 -144 7 -45
90 -266 133 -353 65 -133 95 -147 218 -103 39 14 75 33 82 43 15 20 16 134 1
193 -36 144 -126 361 -165 398 -53 49 -108 51 -174 6z"/>
<path d="M2447 2873 c-13 -12 -7 -78 9 -93 17 -17 66 -20 89 -5 45 29 14 115
-40 115 -11 0 -27 -3 -36 -7 -11 -4 -18 -1 -18 7 0 18 -35 6 -40 -13 -3 -9 -1
-17 5 -17 6 0 6 -7 -1 -19 -13 -24 -3 -41 26 -41 15 0 19 7 19 35 0 19 -4 35
-8 35 -4 0 -8 -7 -8 -15 0 -8 -7 -15 -15 -15 -8 0 -15 -7 -15 -15 0 -17 -16
-20 -25 -5 -8 13 13 50 28 50 9 0 7 -7 -4 -20 -14 -17 -15 -20 -1 -31 19 -16
32 1 32 42 0 30 4 37 22 25 3 -2 1 -11 -5 -19 -8 -11 -8 -17 0 -17 5 0 10 -7
10 -15 0 -8 -4 -15 -10 -15 -5 0 -10 7 -10 15 0 8 -4 15 -10 15 -5 0 -10 -13
-10 -30 0 -26 3 -30 25 -30 16 0 25 6 25 15 0 8 8 15 19 15 24 0 35 34 16 48
-11 8 -15 7 -15 -2 0 -8 -9 -16 -20 -19 -20 -5 -28 21 -9 30 6 3 1 15 -12 28
-23 24 -27 25 -44 9z"/>
<path d="M1310 2410 c-56 -12 -82 -33 -135 -111 -96 -140 -225 -414 -225 -478
0 -79 97 -152 183 -139 109 16 149 42 283 185 135 143 169 199 198 326 38 160
-36 246 -183 231 -25 -3 -79 -10 -121 -14z"/>
<path d="M3605 2365 c-88 -32 -125 -99 -125 -229 0 -105 -25 -165 -163 -393
-118 -196 -121 -225 -25 -283 71 -43 154 -34 222 23 61 52 266 414 266 470 0
15 -11 24 -35 33 -19 6 -35 16 -35 21 0 18 19 14 25 -5 8 -26 38 -52 56 -48
19 5 19 68 -1 77 -21 11 -70 0 -70 -16 0 -7 -11 -20 -25 -28 -34 -21 -32 -2 6
63 34 60 54 69 106 49 l30 -12 -53 -96 c-36 -64 -48 -94 -39 -89 20 10 110
169 110 193 0 33 -36 72 -89 97 -47 22 -59 24 -78 14 -15 -8 -19 -14 -10 -19
7 -4 21 -2 31 6 25 19 67 18 96 -1 25 -17 25 -19 9 -49 -9 -17 -33 -60 -53
-95 -20 -34 -36 -66 -36 -70 0 -4 -12 -17 -27 -29 -23 -18 -25 -18 -13 -2 21
28 16 52 -13 64 -27 11 -30 26 -10 53 7 10 27 45 45 79 39 74 40 62 -13 108
-50 45 -94 53 -155 30z"/>
<path d="M1904 2038 c-46 -22 -97 -99 -173 -261 l-54 -117 -50 -12 c-172 -42
-235 -157 -151 -272 24 -32 46 -47 116 -79 99 -45 149 -48 212 -13 83 46 176
246 229 491 13 62 29 124 36 137 6 14 11 41 11 60 0 53 -71 98 -129 83 -15 -4
-37 -11 -47 -17z"/>
<path d="M3087 1990 c-82 -26 -106 -82 -83 -191 7 -31 15 -60 18 -64 3 -3 23
3 45 15 44 23 39 20 180 106 95 58 113 89 84 150 -29 63 -149 92 -244 60 -26
-9 -47 -14 -47 -10 0 4 27 21 60 36 67 32 107 32 145 0 38 -32 33 -91 -14
-167 l-36 -57 -28 7 c-15 4 -27 13 -27 21 0 24 -29 17 -39 -9 -16 -41 26 -82
77 -76 36 5 56 19 73 54 30 61 23 75 -47 85 l-44 7 19 22 c32 37 61 97 61 126
0 45 -33 79 -89 91 -32 7 -41 6 -58 -8 -11 -9 -23 -16 -26 -16 -4 0 -2 9 4 20
8 16 19 20 47 20 38 0 65 22 61 49 -6 37 -43 55 -109 55 -35 -1 -83 -8 -107
-17z"/>
<path d="M1894 1268 c-59 -28 -109 -104 -145 -218 -10 -30 -40 -93 -67 -140
-93 -163 -39 -276 143 -300 110 -15 161 11 195 97 25 63 100 370 100 411 0 34
-5 46 -30 67 -37 31 -67 36 -127 23 -30 -6 -41 -5 -38 3 7 20 -9 59 -25 59 -3
0 -6 -19 -7 -42 -1 -37 -3 -40 -13 -23 -33 59 -90 83 -156 66 -27 -7 -44 -9
-39 -5 19 16 58 34 84 40 54 11 66 37 34 74 -27 31 -75 35 -132 10 -23 -10
-41 -16 -41 -13 0 7 37 31 78 51 36 18 97 9 122 -18 33 -34 26 -85 -21 -157
l-31 -47 7 -85 c6 -82 7 -86 28 -81 13 3 47 8 75 11 l51 7 -6 -41 c-4 -29 -34
-153 -56 -230 -2 -5 -18 -10 -36 -10 -18 0 -45 -7 -59 -15 -36 -21 -39 -19
-33 25 4 24 22 74 42 112 62 121 86 192 96 280 13 114 -21 177 -97 177 -15 0
-43 -8 -63 -18z"/>
<path d="M3076 1247 c-17 -13 -16 -15 15 -33 44 -24 84 -69 95 -105 6 -19 14
-65 19 -104 9 -74 18 -100 68 -190 57 -104 135 -147 233 -128 57 11 114 42
114 63 0 10 -12 17 -32 20 -47 6 -53 13 -95 112 -22 50 -44 109 -48 129 -5 27
-14 40 -28 44 -21 5 -21 2 -16 -124 1 -17 -15 1 -51 57 -110 171 -164 222
-227 222 -19 0 -40 -7 -47 -16z"/>
<path d="M2454 1134 c-18 -14 -19 -31 -19 -454 0 -435 0 -439 21 -458 31 -28
82 -28 114 0 l25 22 0 436 0 436 -25 22 c-32 28 -83 28 -116 -4z"/>
</g>
</svg>